<svg xmlns="http://www.w3.org/2000/svg" viewBox="0 0 64 64" width="64" height="64">
  <!-- Background with Turkish flag inspired gradient -->
  <defs>
    <linearGradient id="bgGradient" x1="0%" y1="0%" x2="100%" y2="100%">
      <stop offset="0%" style="stop-color:#e74c3c;stop-opacity:1" />
      <stop offset="100%" style="stop-color:#c0392b;stop-opacity:1" />
    </linearGradient>
    <linearGradient id="codeGradient" x1="0%" y1="0%" x2="100%" y2="100%">
      <stop offset="0%" style="stop-color:#ffffff;stop-opacity:1" />
      <stop offset="100%" style="stop-color:#ecf0f1;stop-opacity:1" />
    </linearGradient>
    <filter id="glow">
      <feGaussianBlur stdDeviation="2" result="coloredBlur"/>
      <feMerge> 
        <feMergeNode in="coloredBlur"/>
        <feMergeNode in="SourceGraphic"/>
      </feMerge>
    </filter>
  </defs>
  
  <!-- Main background circle -->
  <circle cx="32" cy="32" r="30" fill="url(#bgGradient)" stroke="#2c3e50" stroke-width="2"/>
  
  <!-- Code brackets representing IDE functionality -->
  <g fill="url(#codeGradient)" filter="url(#glow)">
    <!-- Left bracket -->
    <path d="M18 20 L14 20 Q12 20 12 22 L12 42 Q12 44 14 44 L18 44" stroke="url(#codeGradient)" stroke-width="2" fill="none"/>
    
    <!-- Right bracket -->
    <path d="M46 20 L50 20 Q52 20 52 22 L52 42 Q52 44 50 44 L46 44" stroke="url(#codeGradient)" stroke-width="2" fill="none"/>
    
    <!-- Code elements inside -->
    <circle cx="24" cy="26" r="2" fill="url(#codeGradient)"/>
    <rect x="28" y="24" width="8" height="4" rx="2" fill="url(#codeGradient)"/>
    
    <circle cx="24" cy="32" r="2" fill="url(#codeGradient)"/>
    <rect x="28" y="30" width="12" height="4" rx="2" fill="url(#codeGradient)"/>
    
    <circle cx="24" cy="38" r="2" fill="url(#codeGradient)"/>
    <rect x="28" y="36" width="6" height="4" rx="2" fill="url(#codeGradient)"/>
  </g>
  
  <!-- Turkish crescent and star element (subtle) -->
  <g fill="#ffffff" opacity="0.8">
    <path d="M42 16 Q46 16 46 20 Q46 24 42 24 Q44 22 44 20 Q44 18 42 16" fill="#ffffff"/>
    <polygon points="50,16 51,19 54,19 51.5,21 52.5,24 50,22 47.5,24 48.5,21 46,19 49,19" fill="#ffffff"/>
  </g>
  
  <!-- Modern highlight -->
  <circle cx="32" cy="32" r="30" fill="none" stroke="rgba(255,255,255,0.3)" stroke-width="1"/>
  <circle cx="26" cy="26" r="8" fill="rgba(255,255,255,0.1)"/>
</svg>